<svg width="22" height="22" viewBox="0 0 22 22" fill="none" xmlns="http://www.w3.org/2000/svg">
<path fill-rule="evenodd" clip-rule="evenodd" d="M8 2H2L2 20H8V2ZM2 0C0.895431 0 0 0.89543 0 2V20C0 21.1046 0.89543 22 2 22H8C9.10457 22 10 21.1046 10 20V2C10 0.895431 9.10457 0 8 0H2ZM20 2H14V9H20V2ZM14 0C12.8954 0 12 0.895431 12 2V9C12 10.1046 12.8954 11 14 11H20C21.1046 11 22 10.1046 22 9V2C22 0.895431 21.1046 0 20 0H14ZM14 15H20V20H14V15ZM12 15C12 13.8954 12.8954 13 14 13H20C21.1046 13 22 13.8954 22 15V20C22 21.1046 21.1046 22 20 22H14C12.8954 22 12 21.1046 12 20V15Z" fill="#20214B"/>
</svg>
