<svg width="20" height="19" viewBox="0 0 20 19" fill="none" xmlns="http://www.w3.org/2000/svg">
<path fill-rule="evenodd" clip-rule="evenodd" d="M8.55 17.03L10 18.35L11.45 17.03C16.6 12.36 20 9.27 20 5.5C20 2.41 17.58 0 14.5 0C13.3743 0 12.2779 0.33904 11.3488 0.922339C10.8419 1.24063 10.3848 1.63165 10 2.08C9.6152 1.63165 9.1581 1.24063 8.65117 0.922339C7.72215 0.33904 6.62572 0 5.5 0C2.42 0 0 2.41 0 5.5C0 9.27 3.4 12.36 8.55 17.03ZM10 15.6454L10.1065 15.5484C12.7208 13.1778 14.7294 11.3481 16.1077 9.66177C17.4641 8.00237 18 6.72749 18 5.5C18 3.51695 16.4778 2 14.5 2C13.3646 2 12.2417 2.53892 11.5177 3.38257L10 5.15086L8.48233 3.38257C7.75825 2.53892 6.63539 2 5.5 2C3.52219 2 2 3.51695 2 5.5C2 6.72749 2.53592 8.00237 3.89228 9.66177C5.27062 11.3481 7.27916 13.1778 9.89348 15.5484L9.89636 15.551L10 15.6454Z" fill="#20214B"/>
</svg>
