
<svg width="225" height="44" viewBox="0 0 225 44" fill="none" xmlns="http://www.w3.org/2000/svg">
<path d="M62.156 32.5176C59.6837 32.5176 57.5884 31.9957 55.8717 30.952C54.155 29.9082 52.8551 28.4516 51.9744 26.5815C51.0929 24.7121 50.6525 22.5497 50.6525 20.0942C50.6525 18.2356 50.8979 16.5494 51.391 15.0358C51.8833 13.5214 52.6154 12.2082 53.5887 11.0952C54.5612 9.98301 55.7572 9.12246 57.1772 8.5143C58.5966 7.90686 60.2336 7.60242 62.0877 7.60242C63.9417 7.60242 65.5161 7.89474 66.9469 8.48008C68.3776 9.06542 69.5565 9.92027 70.4842 11.0439C71.4112 12.1682 72.0352 13.545 72.356 15.1734H67.9258C67.7423 14.3934 67.3937 13.7396 66.8786 13.212C66.3635 12.6844 65.7161 12.283 64.9384 12.0078C64.1601 11.7326 63.2672 11.595 62.2598 11.595C60.955 11.595 59.8444 11.8246 58.9288 12.283C58.0132 12.7422 57.269 13.3667 56.697 14.1588C56.1243 14.9502 55.7066 15.8571 55.4434 16.8774C55.1802 17.8983 55.0486 18.9827 55.0486 20.1292C55.0486 21.6207 55.294 23.0088 55.787 24.2936C56.2794 25.5791 57.0577 26.605 58.122 27.3736C59.1864 28.1429 60.5772 28.5265 62.2947 28.5265C63.5077 28.5265 64.5784 28.3197 65.5055 27.9069C66.4325 27.4941 67.1653 26.8916 67.7031 26.1002C68.241 25.3089 68.5327 24.3278 68.5789 23.1578H61.505V19.4412H72.906V21.024C72.906 23.3874 72.494 25.4286 71.6695 27.1497C70.8456 28.8701 69.6376 30.1955 68.0468 31.1245C66.4552 32.0535 64.4909 32.5176 62.156 32.5176Z" fill="#20214B"/>
<path d="M76.3046 32.2424V14.1061H80.1165L80.357 16.481C80.8145 15.7929 81.336 15.2589 81.9193 14.8804C82.5034 14.5018 83.1324 14.2323 83.8083 14.0718C84.4834 13.9114 85.165 13.8309 85.8515 13.8309H86.5552C86.7722 13.8309 86.95 13.843 87.0873 13.8651V17.857H85.9881C84.7972 17.857 83.7905 18.0865 82.9659 18.545C82.142 19.0041 81.5238 19.6579 81.1119 20.5063C80.6999 21.3555 80.4936 22.3993 80.4936 23.6377V32.241L76.3046 32.2424Z" fill="#20214B"/>
<path d="M97.5606 40.5363C96.164 40.5363 94.8073 40.3474 93.4911 39.9688C92.1742 39.5902 90.9555 38.9535 89.8335 38.0588L91.3447 34.6865C92.123 35.306 92.9931 35.793 93.9543 36.1487C94.9161 36.5045 95.9684 36.682 97.1138 36.682C98.9223 36.682 100.244 36.2229 101.08 35.3053C101.915 34.3877 102.334 33.1372 102.334 31.5544V30.2119C101.922 30.7402 101.418 31.1758 100.823 31.5195C100.227 31.8638 99.5861 32.1162 98.8996 32.2766C98.213 32.4371 97.5144 32.5176 96.8051 32.5176C95.0421 32.5176 93.6398 32.1562 92.5982 31.4339C91.556 30.711 90.8068 29.7135 90.3486 28.4402C89.8905 27.1668 89.6621 25.716 89.6621 24.0868V14.1068H93.817V23.1578C93.817 23.8002 93.8625 24.454 93.9543 25.1192C94.0453 25.7851 94.2289 26.3926 94.5035 26.943C94.7781 27.4934 95.1844 27.9354 95.7229 28.2677C96.2608 28.6006 96.9765 28.7667 97.8694 28.7667C99.0369 28.7667 99.9411 28.4801 100.582 27.9062C101.223 27.333 101.664 26.5872 101.904 25.6696C102.144 24.752 102.265 23.7767 102.265 22.7443V14.1068H106.454V30.522C106.454 32.0592 106.294 33.4416 105.974 34.6686C105.653 35.8956 105.138 36.9451 104.428 37.8178C103.718 38.6897 102.803 39.3606 101.681 39.8312C100.559 40.301 99.1856 40.5363 97.5606 40.5363Z" fill="#20214B"/>
<path d="M110.507 32.2424V14.1061H114.353L114.628 16.1708C115.085 15.5512 115.583 15.0757 116.122 14.7427C116.66 14.4105 117.221 14.1752 117.804 14.0369C118.388 13.8993 118.943 13.8302 119.47 13.8302C120.614 13.8302 121.593 14.0597 122.406 14.5182C123.218 14.9773 123.854 15.6653 124.312 16.5829C124.769 15.9412 125.284 15.4186 125.857 15.0172C126.429 14.6158 127.036 14.3178 127.677 14.1225C128.318 13.9278 128.993 13.8302 129.703 13.8302C131.099 13.8302 132.221 14.1225 133.068 14.7078C133.915 15.2932 134.533 16.096 134.922 17.1169C135.312 18.1379 135.507 19.3021 135.507 20.6097V32.2417H131.317V21.9522C131.317 21.4938 131.294 21.0118 131.248 20.5071C131.202 20.003 131.081 19.5324 130.887 19.0961C130.692 18.6605 130.412 18.3047 130.045 18.0295C129.679 17.7543 129.164 17.6167 128.5 17.6167C127.836 17.6167 127.292 17.76 126.869 18.0466C126.445 18.3339 126.101 18.7125 125.839 19.1824C125.575 19.6529 125.393 20.1691 125.289 20.7309C125.186 21.2935 125.135 21.8496 125.135 22.4V32.2424H120.945V21.918C120.945 21.4824 120.916 21.0182 120.859 20.5242C120.802 20.0308 120.688 19.5602 120.516 19.1132C120.344 18.6662 120.069 18.3047 119.692 18.0295C119.314 17.7543 118.793 17.6167 118.129 17.6167C117.167 17.6167 116.441 17.8805 115.949 18.4081C115.456 18.9364 115.125 19.5781 114.953 20.3352C114.781 21.0924 114.695 21.8153 114.695 22.5033V32.2424H110.507Z" fill="#20214B"/>
<path d="M147.663 32.4834C145.808 32.4834 144.212 32.1048 142.873 31.3477C141.534 30.5905 140.504 29.5125 139.782 28.1129C139.061 26.7141 138.701 25.0736 138.701 23.1921C138.701 21.3106 139.067 19.6422 139.8 18.2534C140.532 16.8652 141.563 15.7815 142.891 15.0016C144.218 14.2216 145.81 13.8316 147.664 13.8316C149.518 13.8316 151.075 14.2223 152.403 15.0016C153.73 15.7815 154.749 16.8774 155.459 18.2883C156.169 19.6993 156.524 21.3569 156.524 23.2612C156.524 25.1656 156.174 26.7426 155.476 28.1308C154.778 29.5189 153.765 30.5912 152.437 31.3484C151.109 32.1055 149.517 32.4834 147.663 32.4834ZM147.629 28.6634C148.774 28.6634 149.695 28.411 150.394 27.9062C151.092 27.4021 151.601 26.7362 151.922 25.9099C152.242 25.0843 152.403 24.1895 152.403 23.2256C152.403 22.2617 152.243 21.3562 151.922 20.5071C151.601 19.6586 151.092 18.9756 150.394 18.4594C149.695 17.9432 148.774 17.6851 147.629 17.6851C146.484 17.6851 145.557 17.9432 144.847 18.4594C144.137 18.9756 143.622 19.6529 143.302 20.4899C142.981 21.3277 142.821 22.2396 142.821 23.2256C142.821 24.2116 142.987 25.09 143.319 25.927C143.651 26.7647 144.166 27.4299 144.864 27.9233C145.562 28.4167 146.484 28.6634 147.629 28.6634Z" fill="#20214B"/>
<path d="M161.983 12.0071C161.181 12.0071 160.54 11.7661 160.059 11.2842C159.579 10.8022 159.338 10.1719 159.338 9.39125C159.338 8.61055 159.59 8.00953 160.094 7.51544C160.597 7.02207 161.227 6.77539 161.983 6.77539C162.738 6.77539 163.344 7.01637 163.871 7.49833C164.398 7.98029 164.661 8.61127 164.661 9.39125C164.661 10.1712 164.409 10.8022 163.906 11.2842C163.402 11.7661 162.761 12.0071 161.983 12.0071ZM159.888 32.2424V14.1061H164.078V32.2424H159.888Z" fill="#20214B"/>
<path d="M168.129 32.2424V14.1061H171.941L172.182 16.481C172.639 15.7929 173.161 15.2589 173.744 14.8804C174.328 14.5018 174.957 14.2323 175.633 14.0718C176.308 13.9114 176.99 13.8309 177.676 13.8309H178.38C178.597 13.8309 178.775 13.843 178.912 13.8651V17.857H177.813C176.622 17.857 175.615 18.0865 174.791 18.545C173.967 19.0041 173.349 19.6579 172.937 20.5063C172.525 21.3555 172.318 22.3993 172.318 23.6377V32.241L168.129 32.2424Z" fill="#20214B"/>
<path d="M189.489 32.4834C187.611 32.4834 186.015 32.0934 184.698 31.3134C183.382 30.5335 182.386 29.4498 181.711 28.0616C181.035 26.6735 180.698 25.0622 180.698 23.2263C180.698 21.3904 181.047 19.7677 181.745 18.3568C182.443 16.9458 183.451 15.8393 184.767 15.0358C186.084 14.233 187.669 13.8316 189.523 13.8316C190.897 13.8316 192.099 14.0783 193.129 14.5716C194.159 15.065 195.023 15.7366 195.722 16.585C196.42 17.4342 196.941 18.3974 197.284 19.4761C197.628 20.5548 197.787 21.6906 197.765 22.8834C197.742 23.1586 197.719 23.4288 197.697 23.6919C197.674 23.9557 197.639 24.2373 197.593 24.5353H184.888C184.957 25.3388 185.168 26.0724 185.523 26.7376C185.877 27.4035 186.382 27.9311 187.034 28.3204C187.687 28.7111 188.505 28.9058 189.489 28.9058C190.061 28.9058 190.611 28.8316 191.138 28.6819C191.664 28.5329 192.127 28.309 192.529 28.011C192.929 27.713 193.198 27.3344 193.335 26.8752H197.525C197.227 28.1828 196.678 29.2494 195.877 30.0757C195.075 30.9013 194.119 31.5095 193.01 31.8995C191.899 32.2895 190.725 32.4834 189.489 32.4834ZM184.956 21.4025H193.678C193.678 20.6454 193.507 19.9574 193.163 19.3378C192.82 18.7182 192.333 18.2313 191.704 17.8755C191.074 17.5197 190.313 17.3422 189.42 17.3422C188.458 17.3422 187.657 17.5376 187.016 17.9276C186.375 18.3175 185.883 18.8223 185.539 19.4419C185.196 20.0615 185.002 20.7145 184.956 21.4025Z" fill="#20214B"/>
<path d="M208.033 32.4834C207.163 32.4834 206.298 32.3914 205.44 32.2082C204.581 32.025 203.775 31.7212 203.019 31.2963C202.263 30.8721 201.634 30.2932 201.13 29.5581C200.626 28.8245 200.294 27.9062 200.134 26.8054H204.358C204.541 27.3101 204.833 27.7172 205.234 28.0274C205.634 28.3368 206.104 28.5664 206.642 28.7154C207.18 28.8651 207.712 28.9393 208.239 28.9393C208.559 28.9393 208.908 28.9165 209.286 28.8701C209.664 28.8245 210.018 28.7325 210.351 28.5949C210.682 28.4573 210.952 28.257 211.157 27.9924C211.364 27.7287 211.466 27.3786 211.466 26.943C211.466 26.5302 211.352 26.2029 211.122 25.9619C210.893 25.721 210.585 25.5263 210.195 25.3766C209.806 25.2276 209.337 25.1071 208.787 25.0151C207.803 24.8084 206.75 24.5852 205.628 24.3442C204.506 24.1032 203.533 23.7197 202.709 23.1914C202.365 22.9846 202.068 22.7443 201.816 22.4684C201.564 22.1932 201.352 21.8895 201.181 21.5565C201.009 21.2243 200.883 20.8628 200.803 20.4728C200.722 20.0828 200.683 19.6586 200.683 19.1995C200.683 18.2356 200.883 17.4156 201.284 16.739C201.684 16.0624 202.222 15.512 202.898 15.0871C203.573 14.6629 204.346 14.3471 205.216 14.141C206.086 13.9342 206.979 13.8316 207.895 13.8316C209.131 13.8316 210.252 14.0269 211.26 14.4169C212.267 14.8069 213.108 15.4037 213.784 16.2065C214.459 17.01 214.865 18.0302 215.003 19.2693H211.02C210.905 18.6961 210.556 18.237 209.973 17.8926C209.389 17.5483 208.651 17.3764 207.758 17.3764C207.437 17.3764 207.106 17.4057 206.762 17.4627C206.418 17.5204 206.092 17.6124 205.783 17.7379C205.474 17.8641 205.222 18.0537 205.027 18.3054C204.833 18.5578 204.736 18.8679 204.736 19.2344C204.736 19.5788 204.822 19.8768 204.993 20.1292C205.165 20.3816 205.428 20.594 205.783 20.7659C206.138 20.9377 206.556 21.0817 207.037 21.1958C207.815 21.3562 208.627 21.5173 209.475 21.6777C210.321 21.8389 211.054 21.9993 211.672 22.1597C212.404 22.3665 213.068 22.6588 213.664 23.0374C214.259 23.4159 214.723 23.9093 215.055 24.5175C215.387 25.1256 215.553 25.8999 215.553 26.8403C215.553 27.9418 215.33 28.8594 214.884 29.5931C214.438 30.3274 213.848 30.9006 213.115 31.3134C212.382 31.7262 211.57 32.025 210.677 32.2082C209.784 32.3914 208.903 32.4834 208.033 32.4834Z" fill="#20214B"/>
<path d="M33.0881 15.6632V24.8105C33.0881 31.342 27.7857 36.6564 21.2674 36.6564C14.7491 36.6564 9.44662 31.3427 9.44662 24.8105V12.0499C9.44662 9.76699 10.3302 7.61741 11.936 5.99755C13.5417 4.37841 15.6811 3.47794 17.9584 3.46368C20.2578 3.45085 22.4228 4.33421 24.0534 5.95834C25.6841 7.58247 26.5826 9.7456 26.5826 12.0499V13.5065H22.2791V12.0499C22.2791 10.9027 21.8323 9.82545 21.0198 9.01767C20.2151 8.2163 19.1487 7.77568 18.0153 7.77568H17.9862C15.6505 7.79137 13.7502 9.70853 13.7502 12.0499V24.8105C13.7502 28.9642 17.1225 32.3437 21.2674 32.3437C25.4123 32.3437 28.7846 28.9642 28.7846 24.8105V19.9752H20.0793V23.1664C20.0793 23.7739 20.5716 24.2679 21.1777 24.2694H21.1806C21.5762 24.2694 21.8373 24.0676 21.9575 23.9471C22.0777 23.8266 22.2805 23.565 22.2805 23.1664V22.1262H26.5841V23.1664C26.5841 24.6152 26.0206 25.9762 24.9968 27C23.9737 28.0231 22.6127 28.5864 21.1678 28.5821C18.1953 28.575 15.7764 26.1452 15.7764 23.1664V15.6625H22.2805V15.6575H26.5841V15.6625L33.0881 15.6632Z" fill="#20214B"/>
</svg>
