<svg width="20" height="20" viewBox="0 0 20 20" fill="none" xmlns="http://www.w3.org/2000/svg">
<path fill-rule="evenodd" clip-rule="evenodd" d="M15.1748 10.7219L15.0346 11.8432L17.007 13.3949L16.3097 14.6013L13.9787 13.6557L13.0699 14.3548C12.6655 14.6658 12.2772 14.8993 11.8364 15.0813L10.777 15.5184L10.4305 18H9.02813L8.67913 15.5004L7.59702 15.071C7.18823 14.9088 6.80995 14.6787 6.38875 14.3548L5.48001 13.6557L3.14893 14.6013L2.45163 13.3949L4.42404 11.8432L4.28389 10.7219C4.24853 10.439 4.22933 10.2114 4.22933 10C4.22933 9.78595 4.24889 9.54603 4.28563 9.23368L4.41791 8.10935L2.4575 6.59492L3.15122 5.39478L5.46869 6.32548L6.36933 5.65C6.80325 5.32456 7.1862 5.09201 7.59702 4.92898L8.67913 4.49957L9.02813 2H10.4305L10.7795 4.49957L11.8616 4.92898C12.2725 5.09201 12.6554 5.32456 13.0893 5.65L13.99 6.32548L16.3074 5.39478L17.0012 6.59492L15.0408 8.10936L15.173 9.23369C15.2098 9.54602 15.2293 9.78595 15.2293 10C15.2293 10.2114 15.2101 10.4391 15.1748 10.7219ZM17.3893 16.73L19.3893 13.27C19.5093 13.05 19.4593 12.78 19.2693 12.63L17.1593 10.97C17.1993 10.65 17.2293 10.33 17.2293 10C17.2293 9.67 17.1993 9.34 17.1593 9L19.2693 7.37C19.4593 7.22 19.5093 6.95 19.3893 6.73L17.3893 3.27C17.2693 3.05 16.9993 2.96 16.7793 3.05L14.2893 4.05C13.7693 3.66 13.2293 3.32 12.5993 3.07L12.2293 0.42C12.1893 0.18 11.9793 0 11.7293 0H7.72933C7.47933 0 7.26933 0.18 7.22933 0.42L6.85933 3.07C6.22933 3.32 5.68933 3.66 5.16933 4.05L2.67933 3.05C2.45933 2.96 2.18933 3.05 2.06933 3.27L0.0693316 6.73C-0.0606684 6.95 -0.000668304 7.22 0.189332 7.37L2.29933 9C2.25933 9.34 2.22933 9.67 2.22933 10C2.22933 10.33 2.25933 10.65 2.29933 10.97L0.189332 12.63C-0.000668304 12.78 -0.0606684 13.05 0.0693316 13.27L2.06933 16.73C2.18933 16.95 2.45933 17.03 2.67933 16.95L5.16933 15.94C5.68933 16.34 6.22933 16.68 6.85933 16.93L7.22933 19.58C7.26933 19.82 7.47933 20 7.72933 20H11.7293C11.9793 20 12.1893 19.82 12.2293 19.58L12.5993 16.93C13.2293 16.67 13.7693 16.34 14.2893 15.94L16.7793 16.95C16.9993 17.03 17.2693 16.95 17.3893 16.73ZM9.72925 11.5C9.33142 11.5 8.94989 11.342 8.66859 11.0607C8.38728 10.7794 8.22925 10.3978 8.22925 10C8.22925 9.60218 8.38728 9.22064 8.66859 8.93934C8.94989 8.65804 9.33142 8.5 9.72925 8.5C10.1271 8.5 10.5086 8.65804 10.7899 8.93934C11.0712 9.22064 11.2292 9.60218 11.2292 10C11.2292 10.3978 11.0712 10.7794 10.7899 11.0607C10.5086 11.342 10.1271 11.5 9.72925 11.5ZM9.72925 13.5C8.80099 13.5 7.91075 13.1313 7.25437 12.4749C6.598 11.8185 6.22925 10.9283 6.22925 10C6.22925 9.07174 6.598 8.1815 7.25437 7.52513C7.91075 6.86875 8.80099 6.5 9.72925 6.5C10.6575 6.5 11.5477 6.86875 12.2041 7.52513C12.8605 8.1815 13.2292 9.07174 13.2292 10C13.2292 10.9283 12.8605 11.8185 12.2041 12.4749C11.5477 13.1313 10.6575 13.5 9.72925 13.5Z" fill="#20214B"/>
</svg>
