<svg width="16" height="20" viewBox="0 0 16 20" fill="none" xmlns="http://www.w3.org/2000/svg">
<path fill-rule="evenodd" clip-rule="evenodd" d="M5.16455 5.00742C5.16455 3.42902 6.4441 2.14948 8.02249 2.14948C9.60089 2.14948 10.8804 3.42902 10.8804 5.00742C10.8804 6.58582 9.60089 7.86536 8.02249 7.86536C6.44409 7.86536 5.16455 6.58582 5.16455 5.00742ZM8.02249 0.149475C5.33952 0.149475 3.16455 2.32445 3.16455 5.00742C3.16455 7.69039 5.33952 9.86536 8.02249 9.86536C10.7055 9.86536 12.8804 7.69039 12.8804 5.00742C12.8804 2.32445 10.7055 0.149475 8.02249 0.149475ZM2.33838 18.9589C2.33838 15.8327 4.87384 13.2972 8.00006 13.2972C11.1285 13.2972 13.6636 15.8133 13.6842 18.9397V18.9589C13.6842 19.5112 14.1319 19.9589 14.6842 19.9589C15.2365 19.9589 15.6842 19.5112 15.6842 18.9589L15.6842 18.9365L15.6842 18.9304C15.6584 14.7011 12.2276 11.2972 8.00006 11.2972C3.76927 11.2972 0.338379 14.7281 0.338379 18.9589C0.338379 19.5112 0.786094 19.9589 1.33838 19.9589C1.89066 19.9589 2.33838 19.5112 2.33838 18.9589Z" fill="#20214B"/>
</svg>
