<svg width="47" height="47" viewBox="0 0 47 47" fill="none" xmlns="http://www.w3.org/2000/svg">
<path d="M46.8333 0.166738C46.8333 0.166738 29.0066 -0.696595 14.96 18.5534C4.17996 33.3234 0.166626 46.8334 0.166626 46.8334L4.69329 44.5001C8.05329 38.6667 9.80329 36.2634 13.0933 32.8334C18.9966 34.5601 25.1566 34.3501 30.5 28.1667C25.8333 26.8601 22.1 27.1634 16.5933 27.7234C22.7766 23.5001 27 22.5667 32.8333 23.5001L35.1666 18.8334C30.9666 18.0401 28.1666 17.9701 24.0133 18.9267C28.61 15.6834 31.8066 13.8634 37.5 14.1667L40.3233 9.66341C36.6833 9.40674 34.49 9.80341 30.3133 10.8301C34.07 7.42341 37.5 5.88341 42.4933 5.58007C42.4933 5.58007 44.9433 1.17007 46.8333 0.166738Z" fill="#003530"/>
</svg>
